<svg width="40" height="21" viewBox="0 0 40 21" fill="none" xmlns="http://www.w3.org/2000/svg">
<path d="M6.524 20.748C3.87333 20.748 2.044 20.132 1.036 18.9C0.345333 18.0413 0 16.8653 0 15.372C0 14.6813 0.0746667 13.9253 0.224 13.104L1.204 7.504C2.08133 2.50133 5.14267 0 10.388 0C12.5533 0 14.196 0.466667 15.316 1.4C16.436 2.31467 16.996 3.57467 16.996 5.18C16.996 5.83333 16.9027 6.496 16.716 7.168C16.548 7.84 16.38 8.344 16.212 8.68L15.932 9.184H10.976C11.4613 8.512 11.704 7.73733 11.704 6.86C11.704 5.18 11.004 4.34 9.604 4.34C7.71867 4.34 6.58933 5.432 6.216 7.616L5.264 12.992C5.17067 13.496 5.124 13.9907 5.124 14.476C5.124 15.764 5.88 16.408 7.392 16.408C8.92267 16.408 9.90267 15.6427 10.332 14.112H8.036L8.596 11.004H16.016L15.568 13.412L15.428 14.224C14.644 18.5733 11.676 20.748 6.524 20.748Z" fill="#00EAFF"/>
<path d="M32.388 0C36.8867 0 39.136 1.83867 39.136 5.516C39.136 6.132 39.0707 6.79467 38.94 7.504L37.96 13.104C37.512 15.6987 36.5413 17.6213 35.048 18.872C33.5547 20.1227 31.4547 20.748 28.748 20.748C26.0413 20.748 24.156 20.1227 23.092 18.872C22.364 18.0133 22 16.828 22 15.316C22 14.644 22.0747 13.9067 22.224 13.104L23.204 7.504C24.0813 2.50133 27.1427 0 32.388 0ZM29.504 16.408C30.4373 16.408 31.184 16.1653 31.744 15.68C32.304 15.1947 32.696 14.2987 32.92 12.992L33.872 7.616C33.928 7.24267 33.956 6.90667 33.956 6.608C33.956 5.096 33.1907 4.34 31.66 4.34C29.7373 4.37733 28.5893 5.46933 28.216 7.616L27.264 12.992C27.1893 13.4587 27.152 13.944 27.152 14.448C27.152 15.7547 27.936 16.408 29.504 16.408Z" fill="#00EAFF"/>
<path d="M31.132 0.196001L23.236 10.36L27.576 20.356H21.836L19.092 13.916L14.472 20.356H8.732L16.152 10.36L12.288 0.196001H18.028L20.352 6.748L25.392 0.196001H31.132Z" fill="#CCFF00"/>
</svg>
